<svg width="14" height="18" xmlns="http://www.w3.org/2000/svg" version="1.1">
 <title>copy</title>

 <desc>Created with Sketch.</desc>
 <g>
  <title>Layer 1</title>
  <g id="svg_1" fill-rule="evenodd" fill="none">
   <path id="svg_2" fill="#000000" d="m8.414,9.747l-2.161,-2.161c-0.376,-0.375 -0.884,-0.586 -1.415,-0.586l-2.338,0c-1.379,0 -2.5,1.121 -2.5,2.5l0,6c0,1.379 1.121,2.5 2.5,2.5l4,0c1.379,0 2.5,-1.121 2.5,-2.5l0,-4.338c0,-0.531 -0.211,-1.039 -0.586,-1.415l0,0zm-1.414,5.753c0,0.276 -0.224,0.5 -0.5,0.5l-4,0c-0.276,0 -0.5,-0.224 -0.5,-0.5l0,-6c0,-0.276 0.224,-0.5 0.5,-0.5l1.5,0l0,2c0,0.55 0.45,1 1,1l2,0l0,3.5zm6.414,-12.086l-2.828,-2.828c-0.375,-0.375 -0.884,-0.586 -1.414,-0.586l-6.672,0c-1.381,0 -2.5,1.119 -2.5,2.5l0,2.5c0,0.553 0.447,1 1,1c0.553,0 1,-0.447 1,-1l0,-2.5c0,-0.276 0.224,-0.5 0.5,-0.5l5.5,0l0,3c0,0.55 0.45,1 1,1l3,0l0,9.5c0,0.276 -0.224,0.5 -0.5,0.5l-0.521,0c-0.543,0 -0.984,0.437 -0.987,0.98l0,0.03c-0.003,0.546 0.44,0.99 0.985,0.99l0.523,0c1.381,0 2.5,-1.119 2.5,-2.5l0,-10.672c0,-0.53 -0.211,-1.039 -0.586,-1.414l0,0z"/>
  </g>
  <text id="svg_3" font-family="'Helvetica Neue', Helvetica, Arial-Unicode, Arial, Sans-serif" font-weight="bold" font-size="5px" fill="#000000" y="33" x="0">Created by Kevin White</text>
  <text id="svg_4" font-family="'Helvetica Neue', Helvetica, Arial-Unicode, Arial, Sans-serif" font-weight="bold" font-size="5px" fill="#000000" y="38" x="0">from the Noun Project</text>
 </g>
</svg>