<svg width="18" height="18" xmlns="http://www.w3.org/2000/svg" version="1.1">
 <title>select-all</title>

 <desc>Created with Sketch.</desc>
 <g>
  <title>Layer 1</title>
  <g id="svg_1" fill-rule="evenodd" fill="none">
   <path id="svg_2" fill="#000000" d="m13,6l-8,0c-0.55,0 -1,-0.45 -1,-1c0,-0.55 0.45,-1 1,-1l8,0c0.55,0 1,0.45 1,1c0,0.55 -0.45,1 -1,1m0,4l-8,0c-0.55,0 -1,-0.45 -1,-1c0,-0.55 0.45,-1 1,-1l8,0c0.55,0 1,0.45 1,1c0,0.55 -0.45,1 -1,1m0,4l-8,0c-0.55,0 -1,-0.45 -1,-1c0,-0.55 0.45,-1 1,-1l8,0c0.55,0 1,0.45 1,1c0,0.55 -0.45,1 -1,1m3,-11c0,0.55 0.45,1 1,1c0.55,0 1,-0.45 1,-1l0,-0.5c0,-1.375 -1.125,-2.5 -2.5,-2.5l-0.5,0c-0.55,0 -1,0.45 -1,1c0,0.55 0.45,1 1,1c0,0 1.094,-0.094 1,1m-13,-1c0.55,0 1,-0.45 1,-1c0,-0.55 -0.45,-1 -1,-1l-0.5,0c-1.375,0 -2.5,1.125 -2.5,2.5l0,0.5c0,0.55 0.45,1 1,1c0.55,0 1,-0.45 1,-1c0,0 -0.094,-1.094 1,-1m-1,13c0,-0.55 -0.45,-1 -1,-1c-0.55,0 -1,0.45 -1,1l0,0.5c0,1.375 1.125,2.5 2.5,2.5l0.5,0c0.55,0 1,-0.45 1,-1c0,-0.55 -0.45,-1 -1,-1c0,0 -1.094,0.094 -1,-1m13,1c-0.55,0 -1,0.45 -1,1c0,0.55 0.45,1 1,1l0.5,0c1.375,0 2.5,-1.125 2.5,-2.5l0,-0.5c0,-0.55 -0.45,-1 -1,-1c-0.55,0 -1,0.45 -1,1c0,0 0.094,1.094 -1,1m2,-8c-0.55,0 -1,-0.45 -1,-1l0,-1c0,-0.55 0.45,-1 1,-1c0.55,0 1,0.45 1,1l0,1c0,0.55 -0.45,1 -1,1m0,5c-0.55,0 -1,-0.45 -1,-1l0,-1c0,-0.55 0.45,-1 1,-1c0.55,0 1,0.45 1,1l0,1c0,0.55 -0.45,1 -1,1m-7,-12c0,-0.55 0.45,-1 1,-1l1,0c0.55,0 1,0.45 1,1c0,0.55 -0.45,1 -1,1l-1,0c-0.55,0 -1,-0.45 -1,-1m-5,0c0,-0.55 0.45,-1 1,-1l1,0c0.55,0 1,0.45 1,1c0,0.55 -0.45,1 -1,1l-1,0c-0.55,0 -1,-0.45 -1,-1m-4,9c0.55,0 1,0.45 1,1l0,1c0,0.55 -0.45,1 -1,1c-0.55,0 -1,-0.45 -1,-1l0,-1c0,-0.55 0.45,-1 1,-1m0,-5c0.55,0 1,0.45 1,1l0,1c0,0.55 -0.45,1 -1,1c-0.55,0 -1,-0.45 -1,-1l0,-1c0,-0.55 0.45,-1 1,-1m7,12c0,0.55 -0.45,1 -1,1l-1,0c-0.55,0 -1,-0.45 -1,-1c0,-0.55 0.45,-1 1,-1l1,0c0.55,0 1,0.45 1,1m5,0c0,0.55 -0.45,1 -1,1l-1,0c-0.55,0 -1,-0.45 -1,-1c0,-0.55 0.45,-1 1,-1l1,0c0.55,0 1,0.45 1,1"/>
  </g>
  <text id="svg_3" font-family="'Helvetica Neue', Helvetica, Arial-Unicode, Arial, Sans-serif" font-weight="bold" font-size="5px" fill="#000000" y="33" x="0">Created by Kevin White</text>
  <text id="svg_4" font-family="'Helvetica Neue', Helvetica, Arial-Unicode, Arial, Sans-serif" font-weight="bold" font-size="5px" fill="#000000" y="38" x="0">from the Noun Project</text>
 </g>
</svg>